<svg width="22" height="22" viewBox="0 0 22 22" fill="none" xmlns="http://www.w3.org/2000/svg">
<path fill-rule="evenodd" clip-rule="evenodd" d="M9 14V18C9 19.6569 10.3431 21 12 21L16 12V1H4.72C3.72271 0.988726 2.86954 1.71392 2.72 2.7L1.34 11.7C1.25194 12.2801 1.4231 12.8697 1.80814 13.3125C2.19318 13.7553 2.75325 14.0066 3.34 14H9ZM16 1H19C20.1046 1 21 1.89543 21 3V10C21 11.1046 20.1046 12 19 12H16V1Z" fill="#8E8E93"/>
<path d="M9 14H10C10 13.4477 9.55229 13 9 13V14ZM9 18H8H9ZM12 21V22C12.3952 22 12.7533 21.7673 12.9138 21.4061L12 21ZM16 12L16.9138 12.4061C16.9706 12.2783 17 12.1399 17 12H16ZM16 1H17C17 0.447716 16.5523 0 16 0V1ZM4.72 1L4.70869 2H4.72V1ZM2.72 2.7L3.70845 2.85156L3.7087 2.84994L2.72 2.7ZM1.34 11.7L0.351551 11.5484L0.351324 11.5499L1.34 11.7ZM3.34 14V12.9999L3.32868 13.0001L3.34 14ZM16 1V0C15.4477 0 15 0.447716 15 1H16ZM16 12H15C15 12.5523 15.4477 13 16 13V12ZM8 14V18H10V14H8ZM8 18C8 20.2091 9.79086 22 12 22V20C10.8954 20 10 19.1046 10 18H8ZM12.9138 21.4061L16.9138 12.4061L15.0862 11.5939L11.0862 20.5939L12.9138 21.4061ZM17 12V1H15V12H17ZM16 0H4.72V2H16V0ZM4.7313 6.29425e-05C3.23537 -0.0168476 1.95561 1.07095 1.7313 2.55006L3.7087 2.84994C3.78347 2.3569 4.21005 1.9943 4.7087 1.99994L4.7313 6.29425e-05ZM1.73155 2.54844L0.351553 11.5484L2.32845 11.8516L3.70845 2.85156L1.73155 2.54844ZM0.351324 11.5499C0.21924 12.4202 0.475979 13.3045 1.05354 13.9687L2.56275 12.6563C2.37023 12.4349 2.28465 12.1401 2.32868 11.8501L0.351324 11.5499ZM1.05354 13.9687C1.63109 14.6329 2.4712 15.0099 3.35132 14.9999L3.32868 13.0001C3.0353 13.0034 2.75527 12.8777 2.56275 12.6563L1.05354 13.9687ZM3.34 15H9V13H3.34V15ZM16 2H19V0H16V2ZM19 2C19.5523 2 20 2.44772 20 3H22C22 1.34315 20.6569 0 19 0V2ZM20 3V10H22V3H20ZM20 10C20 10.5523 19.5523 11 19 11V13C20.6569 13 22 11.6569 22 10H20ZM19 11H16V13H19V11ZM17 12V1H15V12H17Z" fill="#EFEFF4"/>
</svg>
