<svg width="32" height="32" viewBox="0 0 32 32" fill="none" xmlns="http://www.w3.org/2000/svg">
<path d="M16 32C24.8366 32 32 24.8366 32 16C32 7.16344 24.8366 0 16 0C7.16344 0 0 7.16344 0 16C0 24.8366 7.16344 32 16 32Z" fill="#06D19C"/>
<path d="M24.6312 20.9136C24.5841 20.7715 24.2841 20.5623 23.7316 20.2863C23.5819 20.1994 23.3687 20.0812 23.0927 19.9312C22.8165 19.7812 22.5657 19.6431 22.341 19.5168C22.1158 19.3905 21.9048 19.2682 21.7076 19.15C21.6761 19.1264 21.5775 19.0574 21.4117 18.9427C21.2458 18.8284 21.1059 18.7435 20.9913 18.6882C20.8769 18.6332 20.7644 18.6055 20.6539 18.6055C20.4961 18.6055 20.299 18.718 20.0623 18.9427C19.8256 19.1678 19.6085 19.4122 19.4113 19.6768C19.2141 19.9413 19.0049 20.1857 18.7842 20.4106C18.5631 20.6356 18.3815 20.748 18.2396 20.748C18.1684 20.748 18.0795 20.7282 17.9731 20.689C17.8667 20.6496 17.7858 20.6158 17.7302 20.5885C17.6752 20.5607 17.5807 20.5057 17.4464 20.4225C17.3119 20.3397 17.2371 20.2943 17.2214 20.2863C16.1402 19.6865 15.213 18.9999 14.4396 18.2268C13.6663 17.4533 12.9796 16.5262 12.3799 15.445C12.372 15.4292 12.3265 15.3542 12.2437 15.2201C12.1608 15.0859 12.1055 14.9914 12.0779 14.936C12.0503 14.8808 12.0168 14.7999 11.9774 14.6933C11.938 14.5868 11.9182 14.4981 11.9182 14.427C11.9182 14.285 12.0307 14.1035 12.2556 13.8825C12.4805 13.6616 12.7252 13.4524 12.9895 13.2553C13.254 13.0581 13.4984 12.8411 13.7234 12.6044C13.9483 12.3676 14.0608 12.1705 14.0608 12.0127C14.0608 11.9022 14.0331 11.7897 13.978 11.6753C13.9227 11.5607 13.8379 11.4208 13.7234 11.255C13.6089 11.0893 13.5399 10.9907 13.5162 10.959C13.3979 10.7619 13.2757 10.5508 13.1493 10.3259C13.0229 10.101 12.8849 9.85034 12.7349 9.57417C12.585 9.29814 12.4667 9.08499 12.3798 8.93508C12.1037 8.3828 11.8947 8.08279 11.7526 8.03561C11.6973 8.01194 11.6144 8 11.504 8C11.2908 8 11.0127 8.03939 10.6694 8.11841C10.326 8.19731 10.0558 8.28006 9.85849 8.367C9.4639 8.53263 9.04567 9.01397 8.60369 9.81087C8.20122 10.5525 8 11.2865 8 12.0124C8 12.2253 8.01381 12.4325 8.04142 12.6339C8.06903 12.8351 8.11837 13.062 8.18948 13.3146C8.26046 13.5671 8.31772 13.7546 8.36101 13.8768C8.40434 13.999 8.48523 14.2179 8.60365 14.5337C8.7219 14.8494 8.793 15.0426 8.81668 15.1136C9.09286 15.887 9.42037 16.5774 9.79912 17.1851C10.4223 18.1951 11.2727 19.239 12.3499 20.3162C13.4271 21.3933 14.4708 22.2436 15.481 22.867C16.0886 23.2457 16.7793 23.5731 17.5526 23.8495C17.6237 23.873 17.817 23.944 18.1325 24.0626C18.4482 24.181 18.6673 24.2619 18.7895 24.3053C18.9118 24.3487 19.0994 24.406 19.3517 24.4771C19.6045 24.5482 19.8312 24.5976 20.0325 24.6254C20.2338 24.6526 20.441 24.6667 20.6539 24.6667C21.3798 24.6667 22.114 24.4653 22.8558 24.0629C23.6526 23.6211 24.1339 23.2029 24.2996 22.808C24.3868 22.6109 24.4693 22.3406 24.5482 21.9973C24.6274 21.6541 24.6667 21.376 24.6667 21.1628C24.6669 21.052 24.655 20.9693 24.6312 20.9136Z" fill="white"/>
</svg>
