<svg width="20" height="20" viewBox="0 0 20 20" fill="none" xmlns="http://www.w3.org/2000/svg">
<path fill-rule="evenodd" clip-rule="evenodd" d="M5.94768 0H14.0173C17.2968 0 19.965 2.66812 19.965 5.94768V14.0173C19.965 17.2969 17.2969 19.965 14.0173 19.965H5.94768C2.66812 19.965 0 17.2969 0 14.0173V5.94768C0 2.66812 2.66812 0 5.94768 0ZM14.0173 17.9565C16.1929 17.9565 17.9565 16.1929 17.9565 14.0173V5.94768C17.9565 3.7721 16.1929 2.00848 14.0173 2.00848H5.94768C3.77214 2.00848 2.00848 3.7721 2.00848 5.94768V14.0173C2.00848 16.1929 3.77214 17.9565 5.94768 17.9565H14.0173Z" fill="#8E8E93"/>
<path fill-rule="evenodd" clip-rule="evenodd" d="M4.81885 9.98247C4.81885 7.13526 7.13526 4.81885 9.98251 4.81885C12.8298 4.81885 15.1462 7.13522 15.1462 9.98247C15.1462 12.8297 12.8298 15.1461 9.98251 15.1461C7.13526 15.1461 4.81885 12.8297 4.81885 9.98247ZM6.82733 9.98251C6.82733 11.7251 8.23993 13.1377 9.98251 13.1377C11.725 13.1377 13.1377 11.725 13.1377 9.98251C13.1377 8.23993 11.7251 6.82733 9.98251 6.82733C8.23997 6.82733 6.82733 8.23993 6.82733 9.98251Z" fill="#8E8E93"/>
<path d="M15.1563 6.095C15.8396 6.095 16.3936 5.54103 16.3936 4.85768C16.3936 4.17433 15.8396 3.62036 15.1563 3.62036C14.4729 3.62036 13.9189 4.17433 13.9189 4.85768C13.9189 5.54103 14.4729 6.095 15.1563 6.095Z" fill="#8E8E93"/>
</svg>
