<svg width="22" height="24" viewBox="0 0 22 24" fill="none" xmlns="http://www.w3.org/2000/svg">
<path fill-rule="evenodd" clip-rule="evenodd" d="M8.0001 2.5C8.0001 1.2 9.2871 0 11.0001 0C12.7121 0 14.0001 1.198 14.0001 2.5C14.0001 3.17 13.0001 3.153 13.0001 2.5C13.0001 1.864 12.2501 1 11.0001 1C9.7501 1 9.0001 1.87 9.0001 2.5C9.0001 3.13 8.0001 3.186 8.0001 2.5ZM11.0001 24C9.8971 24 9.0001 23.395 9.0001 22.5C9.0001 21.85 10.0001 21.836 10.0001 22.5C10.0001 22.602 10.2901 23 11.0001 23C11.7121 23 12.0001 22.606 12.0001 22.5C12.0001 21.85 13.0001 21.835 13.0001 22.5C13.0001 23.395 12.1021 24 11.0001 24ZM4.5001 3H4.0001C2.3371 3 1.0001 4.337 1.0001 6V6.5C1.0031 6.764 0.764098 7 0.500098 7C0.235098 7 -0.0039022 6.764 9.77994e-05 6.5V6C9.77994e-05 3.797 1.7961 2 4.0001 2H4.5001C4.8361 2 5.0021 2.25 5.0001 2.5C4.9981 2.75 4.8301 3 4.5001 3ZM18.0001 3H17.5001C17.1701 3 17.0001 2.75 17.0001 2.5C16.9981 2.25 17.1631 2 17.5001 2H18.0001C20.2031 2 22.0001 3.797 22.0001 6V6.5C22.0041 6.764 21.7641 7 21.5001 7C21.2361 7 20.9961 6.764 21.0001 6.5V6C21.0001 4.337 19.6631 3 18.0001 3ZM11.0001 4C8.4721 4 6.6201 5.104 5.4701 6.72C4.3171 8.333 4.0001 10.42 4.0001 12.5C4.0001 16.422 2.9581 18.216 1.1251 20.156C0.865098 20.431 1.0551 21 1.5001 21H20.5001C20.9601 21 21.1401 20.437 20.8751 20.156C19.0421 18.216 18.0001 16.422 18.0001 12.5C18.0001 10.42 17.6821 8.334 16.5301 6.72C15.3801 5.103 13.5301 4 11.0001 4ZM15.7201 7.28C14.7301 5.895 13.2501 5 11.0001 5C8.7501 5 7.2701 5.896 6.2801 7.28C5.2931 8.667 5.0001 10.578 5.0001 12.5C5.0001 16.07 3.9381 18.142 2.4381 20H19.5631C18.0621 18.142 17.0001 16.07 17.0001 12.5C17.0001 10.58 16.7061 8.668 15.7201 7.28Z" fill="#6D3DF7"/>
</svg>
