<svg width="13" height="20" viewBox="0 0 13 20" fill="none" xmlns="http://www.w3.org/2000/svg">
<path fill-rule="evenodd" clip-rule="evenodd" d="M11.6533 5.40608C11.6533 8.39181 9.23284 10.8122 6.24715 10.8122C3.26297 10.8085 0.844729 8.39029 0.841064 5.40612C0.841064 2.42039 3.26142 0 6.24715 0C9.23288 0 11.6533 2.42035 11.6533 5.40608ZM9.15814 5.40612C9.15814 3.7984 7.85483 2.49513 6.24715 2.49513C4.63947 2.49513 3.33615 3.7984 3.33615 5.40612C3.33615 7.01384 4.63943 8.31711 6.24715 8.31711C7.85487 8.31711 9.15814 7.01384 9.15814 5.40612Z" fill="black"/>
<path d="M11.5427 13.3736C12.1302 12.9867 12.4842 12.3305 12.485 11.627C12.4932 11.0432 12.1637 10.507 11.6392 10.2505C11.1002 9.98135 10.4551 10.042 9.97575 10.4069C7.75419 12.0265 4.74105 12.0265 2.51949 10.4069C2.03942 10.0439 1.3954 9.98334 0.856063 10.2505C0.331735 10.507 0.00210539 11.0426 0.00939584 11.6262C0.0106434 12.3296 0.364523 12.9855 0.951735 13.3728C1.70511 13.8738 2.52554 14.2658 3.38866 14.5372C3.53505 14.5826 3.68612 14.6248 3.84195 14.6636L1.32854 17.1213C0.669201 17.761 0.653255 18.8141 1.29298 19.4735C1.93271 20.1328 2.98577 20.1488 3.64515 19.509C3.65887 19.4957 3.67236 19.4822 3.68561 19.4684L6.24729 16.8169L8.81396 19.4734C9.45314 20.1332 10.5062 20.15 11.1661 19.5108C11.8259 18.8716 11.8427 17.8185 11.2035 17.1587C11.1901 17.1449 11.1765 17.1313 11.1627 17.118L8.65341 14.6628C8.8092 14.6228 8.96086 14.5804 9.10834 14.5355C9.97053 14.2652 10.7902 13.874 11.5427 13.3736Z" fill="black"/>
</svg>
