<svg width="100" height="120" viewBox="0 0 100 120" fill="none" xmlns="http://www.w3.org/2000/svg">
<path fill-rule="evenodd" clip-rule="evenodd" d="M9.44923 108C9.74284 107.951 10.0364 107.854 10.3301 107.756C10.7215 107.659 11.113 107.561 11.5045 107.464C11.7981 107.367 12.0917 107.269 12.3364 107.22C14.9299 106.489 17.5724 105.759 20.1659 105.028C30.0018 102.299 39.8867 99.5702 49.7225 96.8415C63.0817 100.496 76.392 104.151 89.7512 107.805C94.8404 98.888 98.0211 88.704 98.9998 76.912C82.362 72.5265 65.7242 68.1411 49.0864 63.7556C36.5102 67.3615 23.9829 70.9185 11.4556 74.5244C10.7215 70.5775 10.6726 66.6305 11.0151 62.6836C23.836 59.0778 36.657 55.5207 49.5268 51.9149C66.0667 56.5927 83.1939 61.4167 99.7828 66.0945C100.125 62.0989 100.076 58.2007 99.5381 54.4975C83.145 50.0633 66.1646 45.4342 49.7225 41C33.2805 45.288 16.8873 49.6247 0.445235 53.9127C-0.924939 81.1513 0.543104 88.3629 9.44923 108ZM98.951 31.1101L98.853 13.5867C94.3931 11.9063 89.8842 10.6101 85.2282 9.50585V26.1651L56.1163 18.1956L56.7535 1.96838L49.451 0L42.5896 2.20843L43.3738 18.0995L13.7718 26.2131V10.178C9.16485 11.2342 4.60693 12.5785 0.14703 14.2108C0.14703 14.2108 0 37.7354 0 40.76V40.904V41L13.7718 37.1112V37.0632L49.451 26.8852L99 40.3759V32.8384L98.951 32.2623V31.6862V31.1101ZM35 112.507C39.349 111.069 44.5288 109.438 48.9267 108C53.8621 109.343 58.0646 110.877 63 112.171C46.6789 122.48 52.1518 122.624 35 112.507ZM13 84.4866C25.3088 81.3081 37.5686 78.1785 49.8774 75C62.2353 78.2274 74.6421 81.4548 87 84.6822C86.3625 88.2518 85.3327 91.7237 83.5673 95C72.1902 91.9682 60.7641 88.9364 49.387 85.9046C38.3042 88.8875 27.2213 91.9193 16.1385 94.9022C14.4712 91.8215 13.4904 88.3007 13 84.4866Z" fill="#EFEFF4"/>
</svg>
