<svg width="33" height="40" viewBox="0 0 33 40" fill="none" xmlns="http://www.w3.org/2000/svg">
<path fill-rule="evenodd" clip-rule="evenodd" d="M3.104 35.056C3.2 35.04 3.296 35.008 3.392 34.976C3.52 34.944 3.648 34.912 3.776 34.88C3.872 34.848 3.968 34.816 4.048 34.8C4.896 34.56 5.76 34.32 6.608 34.08C9.824 33.184 13.056 32.288 16.272 31.392C20.64 32.592 24.992 33.792 29.36 34.992C31.024 32.064 32.064 28.72 32.384 24.848C26.944 23.408 21.504 21.968 16.064 20.528C11.952 21.712 7.856 22.88 3.76 24.064C3.52 22.768 3.504 21.472 3.616 20.176C7.808 18.992 12 17.824 16.208 16.64C21.616 18.176 27.216 19.76 32.64 21.296C32.752 19.984 32.736 18.704 32.56 17.488C27.2 16.032 21.648 14.512 16.272 13.056C10.896 14.464 5.536 15.888 0.159996 17.296C-0.288004 26.24 0.191996 28.608 3.104 35.056ZM32.368 10.368L32.336 4.528C30.88 3.968 29.408 3.536 27.888 3.168V8.72L18.384 6.064L18.592 0.656L16.208 0L13.968 0.736L14.224 6.032L4.56 8.736V3.392C3.056 3.744 1.568 4.192 0.111996 4.736C0.111996 4.736 0.0639961 12.576 0.0639961 13.584V13.632V13.664L4.56 12.368V12.352L16.208 8.96L32.384 13.456V10.944L32.368 10.752V10.56V10.368ZM11.648 36.672C13.072 36.192 14.768 35.648 16.208 35.168C17.824 35.616 19.2 36.128 20.816 36.56C15.472 40 17.264 40.048 11.648 36.672ZM4.272 27.392C8.288 26.352 12.288 25.328 16.304 24.288C20.336 25.344 24.384 26.4 28.416 27.456C28.208 28.624 27.872 29.76 27.296 30.832C23.584 29.84 19.856 28.848 16.144 27.856C12.528 28.832 8.912 29.824 5.296 30.8C4.752 29.792 4.432 28.64 4.272 27.392Z" fill="#6D3DF7"/>
</svg>
