<svg width="24" height="24" viewBox="0 0 24 24" fill="none" xmlns="http://www.w3.org/2000/svg">
<path fill-rule="evenodd" clip-rule="evenodd" d="M12 0C5.3832 0 0 5.3832 0 12C0 18.6168 5.3832 24 12 24C18.6168 24 24 18.6168 24 12C24 5.3832 18.6168 0 12 0ZM13.56 6.48C13.56 7.34156 12.8616 8.04 12 8.04C11.1384 8.04 10.44 7.34156 10.44 6.48C10.44 6.06626 10.6044 5.66947 10.8969 5.37691C11.1895 5.08436 11.5863 4.92 12 4.92C12.8616 4.92 13.56 5.61844 13.56 6.48ZM8.64 17.52C8.64 18.0502 9.06981 18.48 9.6 18.48H14.88C15.4102 18.48 15.84 18.0502 15.84 17.52C15.84 16.9898 15.4102 16.56 14.88 16.56H13.2V10.32C13.2 9.78981 12.7702 9.36 12.24 9.36H10.32C9.78981 9.36 9.36 9.78981 9.36 10.32C9.36 10.8502 9.78981 11.28 10.32 11.28H11.28V16.56H9.6C9.06981 16.56 8.64 16.9898 8.64 17.52Z" fill="#422498"/>
</svg>
