<svg width="20" height="17" viewBox="0 0 20 17" fill="none" xmlns="http://www.w3.org/2000/svg">
<path d="M19.8367 1.914C19.1082 2.23703 18.3246 2.45551 17.5028 2.55309C18.3419 2.05036 18.9858 1.25491 19.2897 0.305515C18.5046 0.771272 17.6346 1.10915 16.7094 1.29127C15.9682 0.501878 14.9122 0.00854492 13.7428 0.00854492C11.4991 0.00854492 9.67943 1.82824 9.67943 4.07188C9.67943 4.39036 9.71549 4.70036 9.78519 4.99794C6.40822 4.82854 3.41398 3.21097 1.40973 0.751878C1.06004 1.35188 0.859432 2.05036 0.859432 2.79491C0.859432 4.2043 1.57731 5.44854 2.66701 6.17703C2.00125 6.15612 1.37428 5.97339 0.826705 5.66824C0.826402 5.68551 0.826402 5.70279 0.826402 5.71976C0.826402 7.68855 2.22761 9.33067 4.0861 9.7037C3.74549 9.79703 3.3858 9.84642 3.0158 9.84642C2.75337 9.84642 2.49913 9.82127 2.25125 9.774C2.76822 11.3879 4.26852 12.5628 6.04701 12.5958C4.6561 13.6858 2.90428 14.3352 1.00004 14.3352C0.672765 14.3352 0.348523 14.3161 0.03125 14.2782C1.82852 15.4316 3.96489 16.104 6.25943 16.104C13.7334 16.104 17.8206 9.91248 17.8206 4.54248C17.8206 4.36642 17.8167 4.19097 17.8088 4.01703C18.6034 3.4443 19.2922 2.72885 19.8367 1.914Z" fill="#8E8E93"/>
</svg>
