<svg width="20" height="12" viewBox="0 0 20 12" fill="none" xmlns="http://www.w3.org/2000/svg">
<path fill-rule="evenodd" clip-rule="evenodd" d="M9.61053 11.1591H10.7847C10.7847 11.1591 11.1393 11.1201 11.3204 10.9249C11.4871 10.7457 11.4817 10.4092 11.4817 10.4092C11.4817 10.4092 11.4588 8.83375 12.19 8.60175C12.9108 8.37321 13.8364 10.1244 14.8175 10.7977C15.5593 11.3073 16.1231 11.1956 16.1231 11.1956L18.7463 11.1591C18.7463 11.1591 20.1185 11.0745 19.4679 9.99561C19.4145 9.90735 19.0889 9.19748 17.5175 7.73881C15.8727 6.21215 16.0929 6.45908 18.0743 3.81828C19.2809 2.21001 19.7633 1.22815 19.6127 0.807614C19.4689 0.40708 18.5815 0.512947 18.5815 0.512947L15.6279 0.531347C15.6279 0.531347 15.4089 0.50148 15.2465 0.598547C15.0879 0.693747 14.9857 0.915614 14.9857 0.915614C14.9857 0.915614 14.5183 2.16015 13.8948 3.21855C12.5796 5.45188 12.0537 5.56975 11.8388 5.43108C11.3388 5.10788 11.4636 4.13268 11.4636 3.43988C11.4636 1.27561 11.7919 0.373214 10.8244 0.139614C10.5033 0.0620137 10.2671 0.0108137 9.44599 0.00254698C8.39213 -0.00838635 7.50012 0.00574698 6.99506 0.253214C6.65906 0.417747 6.39986 0.784414 6.55772 0.80548C6.75292 0.831614 7.19506 0.92468 7.42946 1.24388C7.73212 1.65561 7.72146 2.58041 7.72146 2.58041C7.72146 2.58041 7.89532 5.12815 7.31532 5.44468C6.91719 5.66175 6.37106 5.21855 5.19852 3.19241C4.59772 2.15455 4.14412 1.00735 4.14412 1.00735C4.14412 1.00735 4.05666 0.792947 3.90066 0.67828C3.71132 0.539347 3.44679 0.49508 3.44679 0.49508L0.640125 0.51348C0.640125 0.51348 0.218791 0.525214 0.0641248 0.708414C-0.0734752 0.871347 0.0531914 1.20841 0.0531914 1.20841C0.0531914 1.20841 2.25052 6.34921 4.73852 8.93988C7.01986 11.3151 9.61053 11.1591 9.61053 11.1591Z" fill="black"/>
</svg>
