<svg width="24" height="24" viewBox="0 0 24 24" fill="none" xmlns="http://www.w3.org/2000/svg">
<g id="correct copy 3">
<path id="Oval" fill-rule="evenodd" clip-rule="evenodd" d="M12 19.1998C15.9765 19.1998 19.2 15.9763 19.2 11.9998C19.2 8.02335 15.9765 4.7998 12 4.7998C8.02355 4.7998 4.8 8.02335 4.8 11.9998C4.8 15.9763 8.02355 19.1998 12 19.1998Z" fill="white"/>
<path id="Shape" fill-rule="evenodd" clip-rule="evenodd" d="M22.3936 5.99893L22.0649 9.14791C22.0541 9.25017 22.0816 9.35283 22.1421 9.43614L24 12.0001L22.1421 14.5641C22.0816 14.6474 22.0541 14.75 22.0649 14.8523L22.3936 18.0011L19.5005 19.2889C19.406 19.3306 19.3304 19.406 19.2884 19.5005L18.0015 22.3936L14.8519 22.0645C14.7496 22.0539 14.6472 22.0816 14.5641 22.1421L12.0001 24L9.43451 22.1421C9.36342 22.0901 9.27787 22.0622 9.18987 22.0622C9.1836 22.0622 9.17689 22.0627 9.17003 22.0633C9.16285 22.0639 9.15551 22.0645 9.14832 22.0645L5.99852 22.3936L4.71155 19.5005C4.66959 19.406 4.59402 19.3304 4.49971 19.2884L1.60657 18.0011L1.93534 14.8523C1.94593 14.75 1.91844 14.6474 1.85814 14.5641L0 12.0001L1.85814 9.43614C1.91844 9.35283 1.94593 9.25017 1.93534 9.14791L1.60657 5.99893L4.49971 4.71115C4.59422 4.66959 4.6698 4.59402 4.71155 4.49971L5.99852 1.60657L9.14832 1.93575C9.25037 1.94593 9.35283 1.91823 9.43614 1.85814L12.0001 0L14.5641 1.85814C14.6472 1.91823 14.7496 1.94593 14.8519 1.93575L18.0015 1.60657L19.2884 4.49971C19.3304 4.59402 19.406 4.66959 19.5005 4.71155L22.3936 5.99893ZM9.79201 17.3012L18.052 9.04097C18.215 8.87821 18.215 8.61402 18.052 8.45106L16.8714 7.27062C16.7084 7.10766 16.4444 7.10766 16.2814 7.27062L9.49705 14.055L7.42991 11.9922C7.26716 11.8298 7.00357 11.8298 6.84082 11.9922L5.66018 13.1685C5.58176 13.2467 5.53776 13.3531 5.53776 13.4639C5.53776 13.5747 5.58176 13.681 5.66018 13.7592L9.2021 17.3012C9.36505 17.4639 9.62905 17.4639 9.79201 17.3012Z" fill="#06D19C"/>
</g>
</svg>
