<svg width="24" height="24" viewBox="0 0 24 24" fill="none" xmlns="http://www.w3.org/2000/svg">
<path fill-rule="evenodd" clip-rule="evenodd" d="M11.8158 0.000488281C14.9716 0.000488281 17.9387 1.22966 20.1703 3.46166C22.4023 5.69329 23.6315 8.66006 23.6315 11.8159C23.6315 14.9717 22.4023 17.9385 20.1703 20.1701C17.9387 22.4021 14.9716 23.6313 11.8158 23.6313C8.65957 23.6313 5.6928 22.4021 3.46117 20.1701C1.22917 17.9385 0 14.9717 0 11.8159C0 8.66006 1.22917 5.69329 3.46117 3.46166C5.6928 1.22966 8.65957 0.000488281 11.8158 0.000488281ZM11.8158 22.8928C14.7744 22.8928 17.5562 21.7404 19.6482 19.648C21.7407 17.5559 22.893 14.7745 22.893 11.8159C22.893 8.85723 21.7407 6.07581 19.6482 3.98375C17.5562 1.89132 14.7744 0.73895 11.8158 0.73895C8.85674 0.73895 6.07532 1.89132 3.98326 3.98375C1.89083 6.07581 0.738462 8.85723 0.738462 11.8159C0.738462 14.7745 1.89083 17.5559 3.98326 19.648C6.07532 21.7404 8.85674 22.8928 11.8158 22.8928Z" fill="#06C795"/>
<path fill-rule="evenodd" clip-rule="evenodd" d="M9.23113 5.90821H11.4465C11.4978 5.90157 13.5149 5.7332 14.8194 6.92545C15.521 7.56606 15.8769 8.46625 15.8769 9.60052C15.8769 10.7348 15.521 11.635 14.8194 12.2756C13.8188 13.1898 12.3991 13.3035 11.7534 13.3035C11.5573 13.3035 11.4325 13.2932 11.4125 13.2914L9.23077 13.2921V14.7698H11.8154V15.5082H9.23077V17.7236H8.4923V15.5082H7.01538V14.7698H8.4923V13.2925L7.01538 13.2928V12.5544H8.4923V5.90821H8.8619H9.23113ZM11.4488 12.5545C11.5369 12.561 13.2748 12.6895 14.3247 11.728C14.8649 11.2329 15.1388 10.517 15.1385 9.60052C15.1385 8.68261 14.8638 7.96557 14.3214 7.47043C13.2543 6.4964 11.4971 6.64335 11.4798 6.6452L9.23077 6.64631V12.5544H11.4465C11.4471 12.5544 11.4479 12.5545 11.4488 12.5545Z" fill="#06C795"/>
</svg>
